<?xml version="1.0" encoding="utf-8"?>
<!-- Generator: Adobe Illustrator 17.1.0, SVG Export Plug-In . SVG Version: 6.00 Build 0)  -->
<!DOCTYPE svg PUBLIC "-//W3C//DTD SVG 1.1//EN" "http://www.w3.org/Graphics/SVG/1.1/DTD/svg11.dtd">
<svg version="1.1" id="Layer_1" xmlns="http://www.w3.org/2000/svg" xmlns:xlink="http://www.w3.org/1999/xlink" x="0px" y="0px"
	 viewBox="0 0 48 48" enable-background="new 0 0 48 48" xml:space="preserve">
<g>
	<path fill="#F0A020" d="M29.2,24c-0.2,0-0.2,0.1-0.1,0.2L31,26l-5,5l-1.8-1.9C24.1,28.9,24,29,24,29.2V36h6.8
		c0.2,0,0.2-0.1,0.1-0.2L29,34l5-5l1.8,1.9c0.1,0.1,0.2,0.1,0.2-0.1V24H29.2L29.2,24z"/>
	<path fill="#3986C7" d="M22,29.2c0-1.1,0.7-1.9,1.7-2.1c-0.3-0.2-0.5-0.4-0.7-0.6c-0.3-0.4-0.7-1.9-0.5-2.7c0,0,1.3-2.7,1.3-3.7
		c0,0,0,0,0.4,0c0.7,0,0.9-1.3,0.9-2.1c0-0.8-1-0.6-1-0.6v-0.7c0-2.6-1.6-4.6-4-4.6c-2.4,0-4,2-4,4.6v0.7c0,0-1-0.1-1,0.6
		c0,0.8,0.1,2.1,0.9,2.1c0.4,0,0.4,0,0.4,0c0,1,1.3,3.7,1.3,3.7c0.2,0.8-0.2,2.2-0.5,2.6c-1.3,1.7-5,1.6-5,3.9c0,1.3,0,2.3,0,2.3
		s0,1.5,6.5,1.5h3c0.2,0,0.3,0,0.5,0V29.2L22,29.2z"/>
	<path fill="#3986C7" d="M26.3,26.1C26.3,26.2,26.2,26.1,26.3,26.1c0.4,0.2,0.8,0.3,1.2,0.5l0.6-0.6l-0.4-0.3
		c-0.7-0.7-0.9-1.6-0.6-2.4c0.3-0.8,1.1-1.3,2-1.3H33c0,0,0-0.5,0-0.8c0-1.8,0-1.8,0-1.8c0-2.3-1.6-4-3.8-4.4
		c-0.2,0-1.7-0.1-2.7,0.4c0.1,0.3,0.1,0.6,0.1,0.9c0.5,0.4,0.8,1.1,0.8,1.9c0,1.3-0.5,3.2-1.9,3.8c-0.2,0.7-0.6,1.6-1,2.6
		c0,0.1,0,0.4,0.1,0.4C24.6,25,24.8,25.8,26.3,26.1L26.3,26.1z"/>
	<rect fill="none" width="48" height="48" fill-opacity="0" />
</g>


</svg>
