<?xml version="1.0" encoding="utf-8"?>
<!-- Generator: Adobe Illustrator 17.1.0, SVG Export Plug-In . SVG Version: 6.00 Build 0)  -->
<!DOCTYPE svg PUBLIC "-//W3C//DTD SVG 1.1//EN" "http://www.w3.org/Graphics/SVG/1.1/DTD/svg11.dtd">
<svg version="1.1" id="Layer_1" xmlns="http://www.w3.org/2000/svg" xmlns:xlink="http://www.w3.org/1999/xlink" x="0px" y="0px"
	 viewBox="0 0 48 48" enable-background="new 0 0 48 48" xml:space="preserve">
<g>
	<path fill="#1F65A8" d="M29.7,29.4c-0.6-0.5-1.4-0.8-2.1-1.1c-0.5-0.2-1-0.5-1.3-0.7c-0.1-0.1-0.1-0.4-0.1-0.5
		c0.1-0.3,0.3-0.7,0.5-1.2c0.2-0.4,0.3-0.7,0.4-1c0.2-0.1,0.5-0.3,0.7-0.5c0.3-0.3,0.6-0.7,0.7-1.2c0.3-0.7,0.4-1.5,0.4-2.1
		c0-0.7-0.3-1.4-0.8-1.9c-0.1-1.5-0.8-2.9-1.9-4c-0.3-0.3-0.7-0.6-1-0.8c0.6-1.2,1.8-2.1,3.3-2.1c2,0,3.6,1.6,3.7,3.7v0.6
		c0,0,0.6,0,0.6,0.6c0,0.6-0.3,1.8-0.9,1.8c-0.3,0-0.3,0-0.3,0c0,0.6-1,2.9-1,2.9c-0.2,0.6,0.2,1.7,0.4,2c1.1,1.3,3.3,1.2,3.3,3.1
		c0,1,0,2.1,0,2.1s0,1-4.2,1C30,29.6,29.9,29.5,29.7,29.4z"/>
	<path fill="#3287D2" d="M20.7,36c-5.9,0-5.9-1.2-5.9-1.2s0-1.2,0-2.4c0-2.2,3.1-2,4.4-3.6c0.3-0.4,0.7-1.6,0.5-2.4
		c0,0-1.2-2.7-1.2-3.4c0,0,0,0-0.4,0c-0.7,0-1.1-1.4-1.1-2.2c0-0.7,0.7-0.8,0.7-0.8v-0.7c0.1-2.4,2-4.3,4.4-4.3
		c2.4,0,4.3,1.9,4.3,4.3v0.7c0,0,0.7,0,0.7,0.8c0,0.7-0.4,2.2-1.1,2.2c-0.4,0-0.4,0-0.4,0c0,0.7-1.2,3.4-1.2,3.4
		c-0.2,0.7,0.2,2,0.5,2.4c1.3,1.6,4.4,1.4,4.4,3.6c0,1.2,0,2.4,0,2.4s0,1.2-5.9,1.2H20.7z"/>
	<rect fill="none" width="48" height="48" fill-opacity="0" />
</g>


</svg>
