<?xml version="1.0" encoding="utf-8"?>
<!-- Generator: Adobe Illustrator 17.1.0, SVG Export Plug-In . SVG Version: 6.00 Build 0)  -->
<!DOCTYPE svg PUBLIC "-//W3C//DTD SVG 1.1//EN" "http://www.w3.org/Graphics/SVG/1.1/DTD/svg11.dtd">
<svg version="1.1" id="Layer_1" xmlns="http://www.w3.org/2000/svg" xmlns:xlink="http://www.w3.org/1999/xlink" x="0px" y="0px"
	 viewBox="0 0 48 48" enable-background="new 0 0 48 48" xml:space="preserve">

<g>
	<g>
		<ellipse fill="#3287D2" cx="23" cy="16.3" rx="8.5" ry="3.3"/>
		<path fill="#3287D2" d="M28.8,21.8c1,0,1.9,0.2,2.7,0.6c0-0.1,0-0.1,0-0.2v-4h-0.1c-1.1,1.6-4.1,2.6-8.4,2.6
			c-4.3,0-7.3-0.9-8.4-2.6h-0.1v4c0,1.4,3.8,3.1,8.5,3.1c0,0,0.1,0,0.1,0C24.2,23.2,26.3,21.8,28.8,21.8z"/>
		<path fill="#3287D2" d="M22.3,28.3c0-0.6,0.1-1.1,0.2-1.6c-4-0.1-6.9-1-8-2.6h-0.1v6.6c0,1.4,3.8,3.1,8.5,3.1c0.8,0,1.5,0,2.2-0.1
			C23.5,32.5,22.3,30.5,22.3,28.3z"/>
	</g>
	<path fill="#1F65A8" d="M33.9,27.1c-0.6-2.1-2.6-3.6-4.8-3.6c-2.8,0-5.1,2.3-5.1,5.1c0,2.3,1.5,4.2,3.6,4.8
		c0.6,2.1,2.6,3.6,4.8,3.6c2.8,0,5.1-2.3,5.1-5.1C37.5,29.6,36,27.7,33.9,27.1z M27.4,32.1c0-0.1,0-0.1,0-0.2c0-2.8,2.3-5.1,5.1-5.1
		c0.1,0,0.1,0,0.2,0c0.2,0.4,0.3,0.8,0.3,1.2c-0.2,0-0.3,0-0.5,0c-1.1,0-2,0.4-2.8,1.2c-0.7,0.7-1.2,1.7-1.2,2.8c0,0.2,0,0.4,0,0.5
		C28.2,32.4,27.8,32.3,27.4,32.1z M28.6,32.5c0.2,0,0.3,0,0.5,0c1.1,0,2-0.4,2.8-1.2c0.7-0.7,1.2-1.7,1.2-2.8c0-0.2,0-0.4,0-0.5
		c0.4,0.1,0.8,0.2,1.2,0.3c0,0.1,0,0.1,0,0.2c0,2.8-2.3,5.1-5.1,5.1c-0.1,0-0.1,0-0.2,0C28.7,33.3,28.6,32.9,28.6,32.5z"/>
	<rect fill="none" width="48" height="48" fill-opacity="0" />
</g>
</svg>
