<?xml version="1.0" encoding="utf-8"?>
<!-- Generator: Adobe Illustrator 17.1.0, SVG Export Plug-In . SVG Version: 6.00 Build 0)  -->
<!DOCTYPE svg PUBLIC "-//W3C//DTD SVG 1.1//EN" "http://www.w3.org/Graphics/SVG/1.1/DTD/svg11.dtd">
<svg version="1.1" id="Layer_1" xmlns="http://www.w3.org/2000/svg" xmlns:xlink="http://www.w3.org/1999/xlink" x="0px" y="0px"
	 viewBox="0 0 48 48" enable-background="new 0 0 48 48" xml:space="preserve">
<g>
	<path fill="#F0A01E" d="M30.2,27.9v-2.8c0-0.3-0.2-0.3-0.4-0.1l-4.7,4.9l4.7,4.9c0.2,0.2,0.4,0.1,0.4-0.1V32c5.5,0,7.4,2.7,8.1,5
		C38.3,27.9,33.9,27.9,30.2,27.9z"/>
	<g>
		<ellipse fill="#3287D2" cx="23.8" cy="16.5" rx="9.1" ry="3.5"/>
		<path fill="#3287D2" d="M31.3,24.6c1-0.5,1.6-1.2,1.6-1.7v-4.2h-0.1c-1.2,1.8-4.4,2.8-9,2.8c-4.6,0-7.8-1-9-2.8h-0.1v4.2
			c0,1.5,4.1,3.3,9.1,3.3c1.1,0,2.2-0.1,3.2-0.2l4.3-4.3V24.6z"/>
		<path fill="#3287D2" d="M25.3,27.5c-0.5,0-1,0-1.5,0c-4.6,0-7.8-1-9-2.8h-0.1v7.1c0,1.5,4.1,3.3,9.1,3.3c1.4,0,2.7-0.1,3.8-0.4
			L22.9,30L25.3,27.5z"/>
	</g>
	<rect fill="none" width="48" height="48" fill-opacity="0" />
</g>

</svg>
