<?xml version="1.0" encoding="utf-8"?>
<!-- Generator: Adobe Illustrator 18.0.0, SVG Export Plug-In . SVG Version: 6.00 Build 0)  -->
<!DOCTYPE svg PUBLIC "-//W3C//DTD SVG 1.1//EN" "http://www.w3.org/Graphics/SVG/1.1/DTD/svg11.dtd">
<svg version="1.1" id="Layer_1" xmlns="http://www.w3.org/2000/svg" xmlns:xlink="http://www.w3.org/1999/xlink" x="0px" y="0px"
	 viewBox="0 0 48 48" enable-background="new 0 0 48 48" xml:space="preserve">
<g>
	<path fill="#1F65A8" d="M24.8,12.4v5.4c0,0,0,0.5,0.5,0.5s5.4,0,5.4,0L24.8,12.4z"/>
	<g>
		<path fill="#3287D2" d="M25.8,31.7H25c-0.9,0-1.6-0.3-2-1.1c-0.3-0.8-0.1-1.5,0.5-2.2l4.9-4.7l1.4-1.3l1,1c0-1.9,0-3.5,0-3.5
			s-4.4,0-5.9,0c-1.9,0-1.9-1.6-1.9-1.6V12H14c0,0-1,0.4-1,1.4S13,34,13,35c0,1,1,1,1,1h11.8V31.7z"/>
	</g>
	<g>
		<path fill="#F0A01E" d="M34.6,29.9c0.1,0.1,0.1,0.1,0,0.1h-2.9v6h-4v-5.9h-2.8c-0.1,0-0.1-0.1,0-0.1l4.8-4.8L34.6,29.9z"/>
	</g>
</g>
<rect fill="none" width="48" height="48"/>
</svg>
