<?xml version="1.0" encoding="utf-8"?>
<!-- Generator: Adobe Illustrator 17.1.0, SVG Export Plug-In . SVG Version: 6.00 Build 0)  -->
<!DOCTYPE svg PUBLIC "-//W3C//DTD SVG 1.1//EN" "http://www.w3.org/Graphics/SVG/1.1/DTD/svg11.dtd">
<svg version="1.1" id="Layer_1" xmlns="http://www.w3.org/2000/svg" xmlns:xlink="http://www.w3.org/1999/xlink" x="0px" y="0px"
	 viewBox="0 0 48 48" enable-background="new 0 0 48 48" xml:space="preserve">
<g>
	<g>
		<path fill="#F0A01E" d="M34.9,25.8c-1.1-1.3-2.8-2.1-4.6-2.1c-3,0-5.6,2.2-6,5.1h2.1c0.5-1.8,2.1-3.1,4-3.1c1.3,0,2.4,0.6,3.1,1.5
			l-1.6,1.6h4.6v-4.6L34.9,25.8z"/>
		<path fill="#F0A01E" d="M34.3,30.9c-0.5,1.8-2.1,3.1-4,3.1c-1.3,0-2.4-0.6-3.1-1.5l1.6-1.6h-4.6v4.6l1.5-1.5
			c1.1,1.3,2.8,2.1,4.6,2.1c3,0,5.6-2.2,6-5.1H34.3z"/>
	</g>
	<g>
		<path fill="#3287D2" d="M22.3,33.6c-0.4-1-0.6-2.1-0.6-3.2c0-1.1,0.2-2.2,0.6-3.2c0.4-1,1-1.8,1.7-2.6c0,0,0.1-0.1,0.1-0.1
			c0-0.1,0-0.2,0.1-0.3c0,0,1.3-2.9,1.3-3.6c0,0,0,0,0.4,0c0.8,0,1.2-1.5,1.2-2.3c0-0.8-0.8-0.8-0.8-0.8v-0.7
			c-0.1-2.6-2.1-4.7-4.7-4.7c-2.6,0-4.6,2.1-4.7,4.7v0.7c0,0-0.8,0-0.8,0.8c0,0.8,0.4,2.3,1.2,2.3c0.4,0,0.4,0,0.4,0
			c0,0.8,1.3,3.6,1.3,3.6c0.2,0.8-0.2,2.2-0.5,2.6c-1.4,1.7-5.1,1.5-5.1,3.9c0,1.3,0,2.6,0,2.6s0,1.3,6.6,1.3h2.6
			C22.6,34.2,22.4,33.9,22.3,33.6z"/>
	</g>
	<rect fill="none" width="48" height="48" fill-opacity="0" />
</g>


</svg>
