<?xml version="1.0" encoding="utf-8"?>
<!-- Generator: Adobe Illustrator 17.1.0, SVG Export Plug-In . SVG Version: 6.00 Build 0)  -->
<!DOCTYPE svg PUBLIC "-//W3C//DTD SVG 1.1//EN" "http://www.w3.org/Graphics/SVG/1.1/DTD/svg11.dtd">
<svg version="1.1" id="Layer_1" xmlns="http://www.w3.org/2000/svg" xmlns:xlink="http://www.w3.org/1999/xlink" x="0px" y="0px"
	 viewBox="0 0 48 48" enable-background="new 0 0 48 48" xml:space="preserve">

<g>
	<path fill="#1F65A8" d="M33.9,27.1c-0.6-2.1-2.6-3.6-4.8-3.6c-2.8,0-5.1,2.3-5.1,5.1c0,2.3,1.5,4.2,3.6,4.8
		c0.6,2.1,2.6,3.6,4.8,3.6c2.8,0,5.1-2.3,5.1-5.1C37.5,29.7,36,27.7,33.9,27.1z M35.2,34.7c-0.7,0.7-1.7,1.2-2.8,1.2
		c-1,0-2-0.4-2.8-1.2c-0.3-0.3-0.6-0.7-0.8-1.1c0.1,0,0.1,0,0.2,0c2.8,0,5.1-2.3,5.1-5.1c0-0.1,0-0.1,0-0.2c0.4,0.2,0.8,0.5,1.1,0.8
		c0.7,0.7,1.2,1.7,1.2,2.8C36.4,33,36,34,35.2,34.7z M29.1,24.6c1,0,2,0.4,2.8,1.2c0.3,0.3,0.6,0.7,0.8,1.1c-0.1,0-0.1,0-0.2,0
		c-2.8,0-5.1,2.3-5.1,5.1c0,0.1,0,0.1,0,0.2c-0.4-0.2-0.8-0.5-1.1-0.8c-0.7-0.7-1.2-1.7-1.2-2.8c0-1,0.4-2,1.2-2.8
		C27,25.1,28,24.6,29.1,24.6z"/>
	<g>
		<ellipse fill="#3287D2" cx="23" cy="16.3" rx="8.5" ry="3.3"/>
		<path fill="#3287D2" d="M28.8,21.9c1,0,1.9,0.2,2.7,0.6c0-0.1,0-0.1,0-0.2v-4h-0.1c-1.1,1.7-4.1,2.6-8.4,2.6
			c-4.3,0-7.3-0.9-8.4-2.6h-0.1v4c0,1.4,3.8,3.1,8.5,3.1c0,0,0.1,0,0.1,0C24.2,23.3,26.3,21.9,28.8,21.9z"/>
		<path fill="#3287D2" d="M22.4,28.3c0-0.6,0.1-1.1,0.2-1.6c-4.1-0.1-6.9-1-8-2.6h-0.1v6.7c0,1.4,3.8,3.1,8.5,3.1
			c0.8,0,1.5,0,2.2-0.1C23.5,32.5,22.4,30.5,22.4,28.3z"/>
	</g>
	<rect fill="none" width="48" height="48" fill-opacity="0" />
</g>
</svg>
