<?xml version="1.0" encoding="utf-8"?>
<!-- Generator: Adobe Illustrator 17.1.0, SVG Export Plug-In . SVG Version: 6.00 Build 0)  -->
<!DOCTYPE svg PUBLIC "-//W3C//DTD SVG 1.1//EN" "http://www.w3.org/Graphics/SVG/1.1/DTD/svg11.dtd">
<svg version="1.1" id="Layer_1" xmlns="http://www.w3.org/2000/svg" xmlns:xlink="http://www.w3.org/1999/xlink" x="0px" y="0px"
	 viewBox="0 0 48 48" enable-background="new 0 0 48 48" xml:space="preserve">
<g>
	<g>
		<g>
			<ellipse fill="#3287D2" cx="23.8" cy="16.3" rx="8.6" ry="3.3"/>
			<path fill="#3287D2" d="M31.3,23.7c0.7-0.5,1.1-0.9,1.1-1.4v-4h-0.1c-1.1,1.7-4.2,2.6-8.5,2.6c-4.3,0-7.4-1-8.5-2.6h-0.1v4
				c0,1.4,3.8,3.1,8.6,3.1c0.9,0,1.7-0.1,2.5-0.2c1.4-1,3-1.5,4.8-1.5C31.2,23.7,31.2,23.7,31.3,23.7z"/>
			<path fill="#3287D2" d="M24.7,26.7c-0.3,0-0.6,0-0.9,0c-4.3,0-7.4-1-8.5-2.6h-0.1v6.7c0,1.3,3.4,2.9,7.8,3.1
				c-0.1-0.6-0.2-1.2-0.2-1.9C22.8,30,23.5,28.2,24.7,26.7z"/>
		</g>
	</g>
	<g>
		<path fill="#F0A01E" d="M34.5,27.5c-1-1.2-2.6-1.9-4.3-1.9c-2.8,0-5.2,2.1-5.6,4.8h1.9c0.4-1.6,1.9-2.9,3.7-2.9
			c1.2,0,2.2,0.5,2.9,1.4l-1.5,1.5h4.3v-4.3L34.5,27.5z"/>
		<path fill="#F0A01E" d="M33.9,32.2c-0.4,1.6-1.9,2.9-3.7,2.9c-1.2,0-2.2-0.5-2.9-1.4l1.5-1.5h-4.3v4.3l1.4-1.4
			c1,1.2,2.6,1.9,4.3,1.9c2.8,0,5.2-2.1,5.6-4.8H33.9z"/>
	</g>
	<rect fill="none" width="48" height="48" fill-opacity="0" />
</g>


</svg>
