<?xml version="1.0" encoding="utf-8"?>
<!-- Generator: Adobe Illustrator 17.1.0, SVG Export Plug-In . SVG Version: 6.00 Build 0)  -->
<!DOCTYPE svg PUBLIC "-//W3C//DTD SVG 1.1//EN" "http://www.w3.org/Graphics/SVG/1.1/DTD/svg11.dtd">
<svg version="1.1" id="Layer_1" xmlns="http://www.w3.org/2000/svg" xmlns:xlink="http://www.w3.org/1999/xlink" x="0px" y="0px"
	 viewBox="0 0 48 48" enable-background="new 0 0 48 48" xml:space="preserve">
<g>
	<path fill="#F5C841" d="M35,14c-1,0-2,0-2,0v3h-5v-3h-8v3h-5v-3c0,0-1,0-2,0s-1,1-1,1v20c0,0,0,1,1,1s21,0,22,0s1-1,1-1V15
		C36,15,36,14,35,14z M18,33h-3v-3h3V33z M18,28h-3v-3h3V28z M18,23h-3v-3h3V23z M23,33h-3v-3h3V33z M23,28h-3v-3h3V28z M23,23h-3
		v-3h3V23z M28,33h-3v-3h3V33z M28,28h-3v-3h3V28z M28,23h-3v-3h3V23z M33,33h-3v-3h3V33z M33,28h-3v-3h3V28z M33,23h-3v-3h3V23z"/>
	<rect x="16" y="12" fill="#F0A01E" width="3" height="4"/>
	<rect x="29" y="12" fill="#F0A01E" width="3" height="4"/>
	<rect fill="none" width="48" height="48" fill-opacity="0" />
</g>

</svg>
