<?xml version="1.0" encoding="utf-8"?>
<!-- Generator: Adobe Illustrator 17.1.0, SVG Export Plug-In . SVG Version: 6.00 Build 0)  -->
<!DOCTYPE svg PUBLIC "-//W3C//DTD SVG 1.1//EN" "http://www.w3.org/Graphics/SVG/1.1/DTD/svg11.dtd">
<svg version="1.1" id="Layer_1" xmlns="http://www.w3.org/2000/svg" xmlns:xlink="http://www.w3.org/1999/xlink" x="0px" y="0px"
	 viewBox="0 0 48 48" enable-background="new 0 0 48 48" xml:space="preserve">
<g>
	<path fill="#F0A01E" d="M34,27.4v-2.7c0-0.3,0.2-0.3,0.4-0.1l4.6,4.9l-4.6,4.9c-0.2,0.2-0.4,0.1-0.4-0.1v-2.7c-5.5,0-7.3,2.7-8,5
		C26.1,27.4,30.4,27.4,34,27.4z"/>
	<g>
		<ellipse fill="#3287D2" cx="23.9" cy="16.5" rx="8.9" ry="3.5"/>
		<path fill="#3287D2" d="M23.9,25.9c4.9,0,8.9-1.7,8.9-3.2v-4.2h-0.1c-1.2,1.7-4.4,2.7-8.9,2.7c-4.5,0-7.7-1-8.9-2.7H15v4.2
			C15,24.2,19,25.9,23.9,25.9z"/>
		<path fill="#3287D2" d="M28.7,26.9c-1.3,0.3-2.9,0.5-4.7,0.5c-4.5,0-7.7-1-8.9-2.7H15v7c0,1.5,4,3.2,8.9,3.2c0.3,0,0.5,0,0.8,0
			C24.7,33.6,24.9,28.7,28.7,26.9z"/>
	</g>
	<rect fill="none" width="48" height="48" fill-opacity="0" />
</g>



</svg>
