<?xml version="1.0" encoding="utf-8"?>
<!-- Generator: Adobe Illustrator 17.1.0, SVG Export Plug-In . SVG Version: 6.00 Build 0)  -->
<!DOCTYPE svg PUBLIC "-//W3C//DTD SVG 1.1//EN" "http://www.w3.org/Graphics/SVG/1.1/DTD/svg11.dtd">
<svg version="1.1" id="Layer_1" xmlns="http://www.w3.org/2000/svg" xmlns:xlink="http://www.w3.org/1999/xlink" x="0px" y="0px"
	 viewBox="0 0 48 48" enable-background="new 0 0 48 48" xml:space="preserve">
<g>
<path fill="#8AC548" d="M31,26.3V29c-5.4,0-8-3-11.5-5c3.5-2,6.1-5,11.5-5v2.7c0,0.3,0.2,0.3,0.4,0.1L36,17l-4.6-4.9
	C31.2,11.9,31,12,31,12.3V15c-8,0-11,7-19,7v4c8,0,11,7,19,7v0v2.7c0,0.3,0.2,0.3,0.4,0.1L36,31l-4.6-4.9C31.2,25.9,31,26,31,26.3z"
	/>
<rect fill="none" width="48" height="48" fill-opacity="0" />
</g>
</svg>
