<?xml version="1.0" encoding="utf-8"?>
<!-- Generator: Adobe Illustrator 17.1.0, SVG Export Plug-In . SVG Version: 6.00 Build 0)  -->
<!DOCTYPE svg PUBLIC "-//W3C//DTD SVG 1.1//EN" "http://www.w3.org/Graphics/SVG/1.1/DTD/svg11.dtd">
<svg version="1.1" id="Layer_1" xmlns="http://www.w3.org/2000/svg" xmlns:xlink="http://www.w3.org/1999/xlink" x="0px" y="0px"
	 viewBox="0 0 48 48" enable-background="new 0 0 48 48" xml:space="preserve">
<g>
	<g>
		<path fill="#3287D2" d="M22.9,32.8c-4.3-0.7-7.5-4.4-7.5-8.8c0-4.9,4-9,9-9c4.4,0,8.1,3.2,8.8,7.5c1.2,0.5,2.2,1.2,3.1,2.1
			c0-0.2,0-0.5,0-0.7c0-6.6-5.3-11.9-11.9-11.9c-6.6,0-11.9,5.3-11.9,11.9c0,6.6,5.3,11.9,11.9,11.9c0.2,0,0.5,0,0.7,0
			C24.1,35.1,23.4,34,22.9,32.8z"/>
		<path fill="#3287D2" d="M26,23.2c-0.2-0.4,0-0.7-1-0.9l0,0v-6c0-0.1,0.3-0.3,0.1-0.3h-1.5c-0.1,0-0.6,0.2-0.6,0.3v6
			c0,0.3-0.8,1-0.8,1.7c0,0.2,0.1,0.4,0.2,0.5l-2.8,2.9c-0.1,0.1-0.1,0.3,0,0.4l1.1,1.1c0.1,0.1,0.3,0.1,0.4,0l2-2.1
			C23.7,25.2,24.7,24,26,23.2z"/>
	</g>
	<path fill="#F0A01E" d="M30.4,24.1c-3.3,0-6,2.7-6,6c0,3.3,2.7,6,6,6c3.3,0,6-2.7,6-6C36.3,26.8,33.7,24.1,30.4,24.1z M29.4,33.1
		h-1.5v-6h1.5V33.1z M32.8,33.1h-1.5v-6h1.5V33.1z"/>
	<rect fill="none" width="48" height="48" fill-opacity="0" />
</g>

</svg>