<?xml version="1.0" encoding="utf-8"?>
<!-- Generator: Adobe Illustrator 16.0.4, SVG Export Plug-In . SVG Version: 6.00 Build 0)  -->
<!DOCTYPE svg PUBLIC "-//W3C//DTD SVG 1.1//EN" "http://www.w3.org/Graphics/SVG/1.1/DTD/svg11.dtd">
<svg version="1.1" id="Layer_1" xmlns="http://www.w3.org/2000/svg" xmlns:xlink="http://www.w3.org/1999/xlink" x="0px" y="0px"
	 width="252px" height="155px" viewBox="0 0 252 155" enable-background="new 0 0 252 155" xml:space="preserve">
<rect x="146" y="52" fill="#BEE6E1" width="4" height="86"/>
<rect x="148" y="103" fill="#BEE6E1" width="24" height="4"/>
<path opacity="0.4" d="M148,140c-3.865,0-7,3.135-7,7s3.135,7,7,7s7-3.135,7-7S151.865,140,148,140z M152,148h-3v3h-2v-3h-3v-2h3v-3
	h2v3h3V148z"/>
<path opacity="0.4" d="M38.198,73.916c1.849-1.512,4.005-2.443,5.909-3.27c1.418-0.615,3.012-1.301,3.759-1.975
	c0.167-0.413,0.349-1.078,0.41-1.541c-0.36-0.806-0.917-2.08-1.479-3.457c-0.469-1.154-0.844-2.139-1.137-2.988
	c-0.68-0.398-1.31-0.908-1.875-1.518c-0.867-0.932-1.594-2.109-2.15-3.492c-0.762-1.893-1.213-4.178-1.213-6.123
	c0-2.15,0.779-4.119,2.162-5.59c0.422-4.392,2.32-8.458,5.426-11.566c0.92-0.92,1.919-1.729,2.982-2.426
	C49.249,26.42,45.678,24,41.509,24c-5.815,0-10.485,4.699-10.635,10.623v1.594c0,0-1.767,0.094-1.767,1.852
	c0,1.761,0.885,5.279,2.66,5.279c0.879,0,0.879,0,0.879,0c0,1.77,3.009,8.279,3.009,8.279c0.53,1.758-0.507,4.913-1.233,5.789
	C31.208,61.254,25,60.932,25,66.205c0,2.924,0,5.897,0,5.897s0,2.757,12.029,2.892C37.39,74.619,37.779,74.256,38.198,73.916z"/>
<path opacity="0.4" d="M55.832,91.994c-16.84,0-16.84-3.41-16.84-3.41s0-3.498,0-6.935c0-6.208,8.895-5.827,12.674-10.345
	c0.855-1.028,2.074-4.74,1.447-6.809c0,0-3.533-7.658-3.533-9.741c0,0,0,0-1.04,0c-2.089,0-3.126-4.14-3.126-6.208
	s2.074-2.18,2.074-2.18v-1.875c0.176-6.967,5.675-12.498,12.516-12.498c6.832,0,12.311,5.531,12.486,12.498v1.875
	c0,0,2.098,0.111,2.098,2.18s-1.037,6.208-3.123,6.208c-1.043,0-1.043,0-1.043,0c0,2.083-3.557,9.741-3.557,9.741
	c-0.624,2.068,0.606,5.78,1.465,6.809c3.773,4.518,12.662,4.137,12.662,10.345c0,3.437,0,6.935,0,6.935s0,3.41-16.822,3.41H55.832z"
	/>
<path opacity="0.4" d="M220,35c-2,0-42,0-44,0s-2,2-2,2v38h48V37C222,37,222,35,220,35z M214,40c0-0.551,0.449-1,1-1h2
	c0.551,0,1,0.449,1,1v2c0,0.551-0.449,1-1,1h-2c-0.551,0-1-0.449-1-1V40z M208,40c0-0.551,0.449-1,1-1h2c0.551,0,1,0.449,1,1v2
	c0,0.551-0.449,1-1,1h-2c-0.551,0-1-0.449-1-1V40z M202,40c0-0.551,0.449-1,1-1h2c0.551,0,1,0.449,1,1v2c0,0.551-0.449,1-1,1h-2
	c-0.551,0-1-0.449-1-1V40z M218,71h-40V45h40V71z"/>
<path opacity="0.4" d="M220,86c-2,0-42,0-44,0s-2,2-2,2v38h48V88C222,88,222,86,220,86z M214,91c0-0.551,0.449-1,1-1h2
	c0.551,0,1,0.449,1,1v2c0,0.551-0.449,1-1,1h-2c-0.551,0-1-0.449-1-1V91z M208,91c0-0.551,0.449-1,1-1h2c0.551,0,1,0.449,1,1v2
	c0,0.551-0.449,1-1,1h-2c-0.551,0-1-0.449-1-1V91z M202,91c0-0.551,0.449-1,1-1h2c0.551,0,1,0.449,1,1v2c0,0.551-0.449,1-1,1h-2
	c-0.551,0-1-0.449-1-1V91z M218,122h-40V96h40V122z"/>
<rect x="181" y="48" fill="#BEE6E1" width="34" height="7"/>
<rect x="181" y="57" opacity="0.4" width="22" height="4"/>
<rect x="181" y="64" opacity="0.4" width="22" height="4"/>
<rect x="205" y="57" opacity="0.4" width="10" height="11"/>
<rect x="181" y="99" fill="#BEE6E1" width="34" height="7"/>
<rect x="181" y="108" opacity="0.4" width="22" height="4"/>
<rect x="181" y="115" opacity="0.4" width="22" height="4"/>
<rect x="205" y="108" opacity="0.4" width="10" height="11"/>
<path fill="#BEE6E1" d="M87.468,52c-0.09,0.199-0.181,0.408-0.269,0.602c-0.075,0.682,0.359,2.352,0.724,2.94
	c0.143,0.165,0.315,0.31,0.481,0.458H172v-4H87.468z"/>
<path opacity="0.4" d="M85.557,57.416c-0.727-0.876-1.764-4.031-1.233-5.789c0,0,3.009-6.51,3.009-8.279c0,0,0,0,0.879,0
	c1.775,0,2.66-3.519,2.66-5.279c0-1.758-1.767-1.852-1.767-1.852v-1.594C88.955,28.699,84.285,24,78.47,24
	c-4.163,0-7.737,2.414-9.478,5.965c1.066,0.697,2.068,1.512,2.988,2.438c3.091,3.1,4.98,7.16,5.408,11.543
	c1.395,1.471,2.186,3.445,2.186,5.607c0,1.942-0.454,4.23-1.213,6.117c-0.557,1.386-1.277,2.561-2.145,3.495
	c-0.568,0.612-1.204,1.122-1.887,1.526c-0.299,0.853-0.674,1.837-1.148,2.994c-0.562,1.371-1.119,2.637-1.482,3.442
	c0.064,0.466,0.249,1.131,0.419,1.541c0.744,0.674,2.338,1.362,3.759,1.978c1.901,0.826,4.058,1.758,5.906,3.27
	c0.419,0.34,0.809,0.703,1.166,1.078c12.029-0.135,12.029-2.892,12.029-2.892s0-2.974,0-5.897
	C94.979,60.932,88.771,61.254,85.557,57.416z"/>
</svg>
