<?xml version="1.0" encoding="utf-8"?>
<!-- Generator: Adobe Illustrator 16.0.4, SVG Export Plug-In . SVG Version: 6.00 Build 0)  -->
<!DOCTYPE svg PUBLIC "-//W3C//DTD SVG 1.1//EN" "http://www.w3.org/Graphics/SVG/1.1/DTD/svg11.dtd">
<svg version="1.1" id="Layer_1" xmlns="http://www.w3.org/2000/svg" xmlns:xlink="http://www.w3.org/1999/xlink" x="0px" y="0px"
	 width="252px" height="155px" viewBox="0 0 252 155" enable-background="new 0 0 252 155" xml:space="preserve">
<g>
	<polygon opacity="0.4" points="62,30 62,41 40,41 40,19 58,19 62,15 36,15 36,45 66,45 66,26 	"/>
	<polygon fill="#BEE6E1" points="68.25,12.75 51,30 46.5,25.5 42.75,29.25 51,37.5 72,16.5 	"/>
	<polygon opacity="0.4" points="62,74 62,85 40,85 40,63 58,63 62,59 36,59 36,89 66,89 66,70 	"/>
	<polygon fill="#BEE6E1" points="68.25,56.75 51,74 46.5,69.5 42.75,73.25 51,81.5 72,60.5 	"/>
	<polygon opacity="0.4" points="62,118 62,129 40,129 40,107 58,107 62,103 36,103 36,133 66,133 66,114 	"/>
	<polygon fill="#BEE6E1" points="68.25,100.75 51,118 46.5,113.5 42.75,117.25 51,125.5 72,104.5 	"/>
	<path opacity="0.4" d="M127,93c0,22.094,17.91,40,40,40c7.977,0,15.406-2.336,21.645-6.355
		c7.219,7.219,18.348,18.348,19.355,19.355c1.5,1.5,3,3,6,3s4.5-1.5,6-3s3-3,3-6s-1.5-4.5-3-6
		c-1.008-1.008-12.137-12.137-19.355-19.355C204.664,108.406,207,100.977,207,93c0-22.094-17.906-40-40-40
		C144.91,53,127,70.906,127,93z M139,93c0-15.465,12.535-28,28-28s28,12.535,28,28s-12.535,28-28,28S139,108.465,139,93z"/>
	<circle fill="#BEE6E1" cx="167" cy="93" r="24"/>
	<rect x="81" y="24" opacity="0.4" width="114" height="12"/>
	<path opacity="0.4" d="M130.82,68H81v12h43.961C126.301,75.677,128.297,71.643,130.82,68z"/>
	<path opacity="0.4" d="M127.318,112H81v12h54.809C132.35,120.521,129.467,116.469,127.318,112z"/>
</g>
</svg>
