<?xml version="1.0" encoding="utf-8"?>
<!-- Generator: Adobe Illustrator 17.0.0, SVG Export Plug-In . SVG Version: 6.00 Build 0)  -->
<!DOCTYPE svg PUBLIC "-//W3C//DTD SVG 1.1//EN" "http://www.w3.org/Graphics/SVG/1.1/DTD/svg11.dtd">
<svg version="1.1" id="Layer_1" xmlns="http://www.w3.org/2000/svg" xmlns:xlink="http://www.w3.org/1999/xlink" x="0px" y="0px"
	 width="252px" height="155px" viewBox="0 0 252 155" enable-background="new 0 0 252 155" xml:space="preserve">
<path opacity="0.4" d="M227.5,30c0-2.209-1.791-4-4-4h-48c-2.209,0-4,1.791-4,4v36c0,2.209,1.791,4,4,4h48c2.209,0,4-1.791,4-4V30z
	 M219.5,64h-42V32h42V64z M224,50c-1.104,0-2-0.896-2-2c0-1.105,0.896-2,2-2s2,0.895,2,2C226,49.104,225.104,50,224,50z"/>
<path opacity="0.4" d="M227.5,81c0-2.209-1.791-4-4-4h-48c-2.209,0-4,1.791-4,4v36c0,2.209,1.791,4,4,4h48c2.209,0,4-1.791,4-4V81z
	 M219.5,115h-42V83h42V115z M224,101c-1.104,0-2-0.896-2-2c0-1.105,0.896-2,2-2s2,0.895,2,2C226,100.104,225.104,101,224,101z"/>
<rect x="68.5" y="46" fill="#BEE6E1" width="101" height="4"/>
<rect x="143.5" y="50" fill="#BEE6E1" width="4" height="82"/>
<rect x="147.5" y="97" fill="#BEE6E1" width="22" height="4"/>
<rect x="181.5" y="36" fill="#BEE6E1" width="34" height="9"/>
<rect x="204.5" y="47" fill="#BEE6E1" width="11" height="13"/>
<rect x="181.5" y="47" opacity="0.4" width="21" height="3"/>
<rect x="181.5" y="52" opacity="0.4" width="21" height="3"/>
<rect x="181.5" y="57" opacity="0.4" width="21" height="3"/>
<rect x="191.5" y="87" fill="#BEE6E1" width="24" height="4"/>
<rect x="181.5" y="87" fill="#BEE6E1" width="8" height="24"/>
<rect x="191.5" y="98" opacity="0.4" width="24" height="3"/>
<rect x="191.5" y="93" opacity="0.4" width="24" height="3"/>
<rect x="191.5" y="103" opacity="0.4" width="24" height="3"/>
<rect x="191.5" y="108" opacity="0.4" width="24" height="3"/>
<path opacity="0.4" d="M145.5,134c-4.971,0-9,4.029-9,9c0,4.971,4.029,9,9,9c4.97,0,9-4.029,9-9C154.5,138.029,150.47,134,145.5,134
	z M150.5,144h-4v4h-2v-4h-4v-2h4v-4h2v4h4V144z"/>
<g opacity="0.4">
	<path fill-rule="evenodd" clip-rule="evenodd" d="M65.379,35H44.621c-0.892,0-2.121,0.723-2.121,1.606v20.788
		c0,0.883,1.229,1.606,2.121,1.606h20.758c0.892,0,1.121-0.723,1.121-1.606V36.606C66.5,35.723,66.271,35,65.379,35z M55,56
		c-4.971,0-9-4.029-9-9c0-4.971,4.029-9,9-9s9,4.029,9,9C64,51.971,59.971,56,55,56z"/>
	<path d="M53.404,48.488l-0.811,2.402C52.58,50.973,52.54,51,52.459,51h-1.357c-0.093,0-0.12-0.041-0.093-0.138
		C51.729,48.75,54,42.1,54,42.1s0.04-0.1,0.08-0.1h1.814c0.067,0,0.08,0.013,0.107,0.069c0.984,2.83,1.979,5.95,2.99,8.807
		c0.027,0.083,0,0.124-0.08,0.124h-1.489c-0.067,0-0.094-0.027-0.12-0.083l-0.851-2.429H53.404z M56,47
		c-0.266-0.925-0.827-2.653-1.093-3.62h-0.014c-0.199,0.911-0.695,2.336-1.093,3.62H56z"/>
</g>
<path opacity="0.4" d="M75.5,52v27h-42V25h42v19h8V21c0-2.209-1.291-4-3.5-4H30c-2.209,0-4.5,1.791-4.5,4v66c0,2.209,2.291,4,4.5,4
	h50c2.209,0,3.5-1.791,3.5-4V52H75.5z M55,87c-1.381,0-2.5-1.119-2.5-2.5S53.619,82,55,82c1.381,0,2.5,1.119,2.5,2.5
	S56.381,87,55,87z"/>
</svg>
