<?xml version="1.0" encoding="utf-8"?>
<!-- Generator: Adobe Illustrator 16.0.4, SVG Export Plug-In . SVG Version: 6.00 Build 0)  -->
<!DOCTYPE svg PUBLIC "-//W3C//DTD SVG 1.1//EN" "http://www.w3.org/Graphics/SVG/1.1/DTD/svg11.dtd">
<svg version="1.1" id="Layer_1" xmlns="http://www.w3.org/2000/svg" xmlns:xlink="http://www.w3.org/1999/xlink" x="0px" y="0px"
	 width="252px" height="155px" viewBox="0 0 252 155" enable-background="new 0 0 252 155" xml:space="preserve">
<rect x="31.5" y="52" opacity="0.4" width="84" height="88"/>
<rect x="123.5" y="52" opacity="0.4" width="49" height="8"/>
<rect x="31.5" y="22" opacity="0.4" width="141" height="22"/>
<rect x="123.5" y="68" opacity="0.4" width="49" height="8"/>
<rect x="123.5" y="84" opacity="0.4" width="49" height="8"/>
<rect x="123.5" y="100" opacity="0.4" width="49" height="8"/>
<rect x="123.5" y="116" opacity="0.4" width="49" height="8"/>
<rect x="123.5" y="132" opacity="0.4" width="49" height="8"/>
<path fill="#BEE6E1" d="M180.5,22v34h39V22H180.5z M203.5,49c0,0.5-2.25,1.25-2.25,1.5s0,0.5-0.25,0.5h-1
	c-0.25,0-0.75-0.25-0.75-0.5s-2.75-1-2.75-1.5c0-0.25,0-0.75,0-0.75c0-0.138,0.612-0.25,0.75-0.25h6.5c0.138,0-0.25,0.112-0.25,0.25
	C203.5,48.25,203.5,48.75,203.5,49z M203.5,46.75c0,0.138-0.112,0.25-0.25,0.25h-6.5c-0.138,0-0.25-0.112-0.25-0.25v-1.5
	c0-0.138,0.112-0.25,0.25-0.25h6.5c0.138,0,0.25,0.112,0.25,0.25V46.75z M207.963,34.719C207.596,39.005,204.021,39,204,43
	c0,0,0,1-1,1s-4,0-5,0s-0.999-1-0.999-1c0.02-4-3.597-3.995-3.964-8.281C193.013,34.482,193,34.242,193,34c0-3.866,3-7,7.5-7
	s7.5,3.134,7.5,7C208,34.242,207.987,34.482,207.963,34.719z"/>
<path fill="#BEE6E1" d="M180.5,64v34h39V64H180.5z M203.5,91c0,0.5-2.25,1.25-2.25,1.5s0,0.5-0.25,0.5h-1
	c-0.25,0-0.75-0.25-0.75-0.5s-2.75-1-2.75-1.5c0-0.25,0-0.75,0-0.75c0-0.138,0.612-0.25,0.75-0.25h6.5c0.138,0-0.25,0.112-0.25,0.25
	C203.5,90.25,203.5,90.75,203.5,91z M203.5,88.75c0,0.139-0.112,0.25-0.25,0.25h-6.5c-0.138,0-0.25-0.111-0.25-0.25v-1.5
	c0-0.139,0.112-0.25,0.25-0.25h6.5c0.138,0,0.25,0.111,0.25,0.25V88.75z M207.963,76.719C207.596,81.005,204.021,81,204,85
	c0,0,0,1-1,1s-4,0-5,0s-0.999-1-0.999-1c0.02-4-3.597-3.995-3.964-8.281C193.013,76.482,193,76.242,193,76c0-3.866,3-7,7.5-7
	s7.5,3.134,7.5,7C208,76.242,207.987,76.482,207.963,76.719z"/>
<path fill="#BEE6E1" d="M180.5,106v34h39v-34H180.5z M203.5,133c0,0.5-2.25,1.25-2.25,1.5s0,0.5-0.25,0.5h-1
	c-0.25,0-0.75-0.25-0.75-0.5s-2.75-1-2.75-1.5c0-0.25,0-0.75,0-0.75c0-0.138,0.612-0.25,0.75-0.25h6.5c0.138,0-0.25,0.112-0.25,0.25
	C203.5,132.25,203.5,132.75,203.5,133z M203.5,130.75c0,0.139-0.112,0.25-0.25,0.25h-6.5c-0.138,0-0.25-0.111-0.25-0.25v-1.5
	c0-0.139,0.112-0.25,0.25-0.25h6.5c0.138,0,0.25,0.111,0.25,0.25V130.75z M207.963,118.719C207.596,123.005,204.021,123,204,127
	c0,0,0,1-1,1s-4,0-5,0s-0.999-1-0.999-1c0.02-4-3.597-3.995-3.964-8.281C193.013,118.482,193,118.242,193,118c0-3.866,3-7,7.5-7
	s7.5,3.134,7.5,7C208,118.242,207.987,118.482,207.963,118.719z"/>
</svg>
