<?xml version="1.0" encoding="utf-8"?>
<!-- Generator: Adobe Illustrator 16.0.4, SVG Export Plug-In . SVG Version: 6.00 Build 0)  -->
<!DOCTYPE svg PUBLIC "-//W3C//DTD SVG 1.1//EN" "http://www.w3.org/Graphics/SVG/1.1/DTD/svg11.dtd">
<svg version="1.1" id="Layer_1" xmlns="http://www.w3.org/2000/svg" xmlns:xlink="http://www.w3.org/1999/xlink" x="0px" y="0px"
	 width="252px" height="155px" viewBox="0 0 252 155" enable-background="new 0 0 252 155" xml:space="preserve">
<g>
	<path opacity="0.4" d="M163,38V20c0,0,0-4-4-4c-6,0-106,0-112,0c-4,0-4,4-4,4v96h22v-8H51V38H163z M147,25c0-1.102,0.9-2,2-2h4
		c1.1,0,2,0.898,2,2v4c0,1.102-0.9,2-2,2h-4c-1.1,0-2-0.898-2-2V25z M135,25c0-1.102,0.9-2,2-2h4c1.1,0,2,0.898,2,2v4
		c0,1.102-0.9,2-2,2h-4c-1.1,0-2-0.898-2-2V25z M123,25c0-1.102,0.9-2,2-2h4c1.1,0,2,0.898,2,2v4c0,1.102-0.9,2-2,2h-4
		c-1.1,0-2-0.898-2-2V25z"/>
	<path opacity="0.4" d="M189,46c-6,0-106,0-112,0c-4,0-4,4-4,4v97h120V50C193,50,193,46,189,46z M185,139H81V68h104V139z M185,59
		c0,1.102-0.9,2-2,2h-4c-1.1,0-2-0.898-2-2v-4c0-1.102,0.9-2,2-2h4c1.1,0,2,0.898,2,2V59z M173,59c0,1.102-0.9,2-2,2h-4
		c-1.1,0-2-0.898-2-2v-4c0-1.102,0.9-2,2-2h4c1.1,0,2,0.898,2,2V59z M161,59c0,1.102-0.9,2-2,2h-4c-1.1,0-2-0.898-2-2v-4
		c0-1.102,0.9-2,2-2h4c1.1,0,2,0.898,2,2V59z"/>
	<rect x="91" y="78" opacity="0.4" width="84" height="13"/>
	<rect x="91" y="97" opacity="0.4" width="62" height="5"/>
	<rect x="91" y="106" opacity="0.4" width="62" height="5"/>
	<rect x="91" y="115" opacity="0.4" width="62" height="5"/>
	<rect x="91" y="124" opacity="0.4" width="62" height="5"/>
	<rect x="59" y="46" fill="#BEE6E1" width="6" height="13"/>
	<rect x="59" y="65" opacity="0.4" width="6" height="5"/>
	<rect x="59" y="74" opacity="0.4" width="6" height="5"/>
	<rect x="59" y="83" opacity="0.4" width="6" height="5"/>
	<rect x="59" y="92" opacity="0.4" width="6" height="5"/>
	<rect x="157" y="97" fill="#BEE6E1" width="18" height="32"/>
</g>
</svg>
