<?xml version="1.0" encoding="utf-8"?>
<!-- Generator: Adobe Illustrator 17.0.0, SVG Export Plug-In . SVG Version: 6.00 Build 0)  -->
<!DOCTYPE svg PUBLIC "-//W3C//DTD SVG 1.1//EN" "http://www.w3.org/Graphics/SVG/1.1/DTD/svg11.dtd">
<svg version="1.1" id="Layer_1" xmlns="http://www.w3.org/2000/svg" xmlns:xlink="http://www.w3.org/1999/xlink" x="0px" y="0px"
	 width="1152px" height="1152px" viewBox="0 0 1152 1152" enable-background="new 0 0 1152 1152" xml:space="preserve">
<path d="M744,696c-53.019,0-96,42.979-96,96c0,53.016,42.981,96,96,96s96-42.984,96-96C840,738.979,797.019,696,744,696z"/>
<path d="M576,0C257.883,0,0,257.883,0,576s257.883,576,576,576s576-257.883,576-576S894.117,0,576,0z M480,576
	c0,10.354-1.254,20.391-3.047,30.223l144.082,72.041C651.724,645.094,695.25,624,744,624c92.783,0,168,75.217,168,168
	s-75.217,168-168,168s-168-75.217-168-168c0-18.023,3.583-35.051,8.836-51.328l-135.853-67.928C418.556,715.734,368.675,744,312,744
	c-92.783,0-168-75.217-168-168s75.217-168,168-168c56.675,0,106.556,28.266,136.983,71.256l135.853-67.928
	C579.583,395.051,576,378.023,576,360c0-92.783,75.217-168,168-168s168,75.217,168,168s-75.217,168-168,168
	c-48.75,0-92.276-21.094-122.965-54.264l-144.082,72.041C478.746,555.609,480,565.646,480,576z"/>
<g>
	<path d="M744,264c-53.019,0-96,42.979-96,96c0,53.016,42.981,96,96,96s96-42.984,96-96C840,306.979,797.019,264,744,264z"/>
</g>
</svg>
