<?xml version="1.0" encoding="utf-8"?>
<!-- Generator: Adobe Illustrator 17.1.0, SVG Export Plug-In . SVG Version: 6.00 Build 0)  -->
<!DOCTYPE svg PUBLIC "-//W3C//DTD SVG 1.1//EN" "http://www.w3.org/Graphics/SVG/1.1/DTD/svg11.dtd">
<svg version="1.1" id="Layer_1" xmlns="http://www.w3.org/2000/svg" xmlns:xlink="http://www.w3.org/1999/xlink" x="0px" y="0px"
	 width="1152px" height="1152px" viewBox="0 0 1152 1152" enable-background="new 0 0 1152 1152" xml:space="preserve">
<g>
	<path d="M704,0v288c0,0,0,32,32,32s288,0,288,0L704,0z"/>
	<path d="M704,384c-64,0-64-64-64-64V0H256c0,0-64,0-64,64s0,960,0,1024s64,64,64,64h704c0,0,64,0,64-64s0-704,0-704H704z M576,1024
		H320V768h256V1024z M576,704H320V448h256V704z M576,384H320V128h256V384z"/>
</g>
</svg>
